<svg width="569" height="365" viewBox="0 0 569 365" fill="none" xmlns="http://www.w3.org/2000/svg">
<ellipse cx="390" cy="295.5" rx="137" ry="32.5" fill="#FD6395" fill-opacity="0.51"/>
<path d="M0 0H569V277H0V0Z" fill="url(#paint0_linear_223_14)"/>
<path d="M0 296.556L23.7083 304.714C47.4167 312.75 94.8333 329.25 142.25 329.158C189.667 329.25 237.083 312.75 284.5 303.064C331.917 293.194 379.333 290.139 426.75 301.444C474.167 312.75 521.583 339.028 545.292 351.953L569 365V277H545.292C521.583 277 474.167 277 426.75 277C379.333 277 331.917 277 284.5 277C237.083 277 189.667 277 142.25 277C94.8333 277 47.4167 277 23.7083 277H0V296.556Z" fill="url(#paint1_linear_223_14)"/>
<defs>
<linearGradient id="paint0_linear_223_14" x1="2.00003" y1="1.49991" x2="628.73" y2="182.859" gradientUnits="userSpaceOnUse">
<stop stop-color="#FD957B"/>
<stop offset="1" stop-color="#FD559C"/>
</linearGradient>
<linearGradient id="paint1_linear_223_14" x1="5.92341e-06" y1="140" x2="475.043" y2="489.921" gradientUnits="userSpaceOnUse">
<stop stop-color="#FD957B"/>
<stop offset="1" stop-color="#FD559C"/>
</linearGradient>
</defs>
</svg>
